<svg xmlns="http://www.w3.org/2000/svg" viewBox="0 0 64 64">
  <defs>
    <linearGradient id="g" x1="0" y1="0" x2="1" y2="1">
      <stop offset="0" stop-color="#6366f1"/>
      <stop offset="1" stop-color="#3730a3"/>
    </linearGradient>
  </defs>
  <rect width="64" height="64" rx="14" fill="url(#g)"/>
  <path d="M22 17c-5 0-6 3-6 7v4c0 2-1 4-4 4 3 0 4 2 4 4v4c0 4 1 7 6 7" fill="none" stroke="#fff" stroke-width="4" stroke-linecap="round" stroke-linejoin="round"/>
  <path d="M42 17c5 0 6 3 6 7v4c0 2 1 4 4 4-3 0-4 2-4 4v4c0 4-1 7-6 7" fill="none" stroke="#fff" stroke-width="4" stroke-linecap="round" stroke-linejoin="round"/>
  <path d="M26 32h12m-5-5 5 5-5 5" fill="none" stroke="#a5f3fc" stroke-width="4" stroke-linecap="round" stroke-linejoin="round"/>
</svg>
